HIERARCHY
ROOT Hips
{
  OFFSET 90.7885 88.945 -76.2838
  CHANNELS 6 Xposition Yposition Zposition Zrotation Xrotation Yrotation
  JOINT LeftUpLeg
  {
    OFFSET 8.64259 1.95398 -2.38835
    CHANNELS 3 Zrotation Xrotation Yrotation
    JOINT LeftLeg
    {
      OFFSET 43.7702 0 0
      CHANNELS 3 Zrotation Xrotation Yrotation
      JOINT LeftFoot
      {
        OFFSET 40.6238 0 0
        CHANNELS 3 Zrotation Xrotation Yrotation
        JOINT LeftToeBase
        {
          OFFSET 12.7242 0 0
          CHANNELS 3 Zrotation Xrotation Yrotation
          End Site
          {
            OFFSET 0 0 0
          }
        }
      }
    }
  }
  JOINT RightUpLeg
  {
    OFFSET -8.2249 1.95398 -2.59336
    CHANNELS 3 Zrotation Xrotation Yrotation
    JOINT RightLeg
    {
      OFFSET 43.5653 0 0
      CHANNELS 3 Zrotation Xrotation Yrotation
      JOINT RightFoot
      {
        OFFSET 40.6238 0 0
        CHANNELS 3 Zrotation Xrotation Yrotation
        JOINT RightToeBase
        {
          OFFSET 12.7242 0 0
          CHANNELS 3 Zrotation Xrotation Yrotation
          End Site
          {
            OFFSET 0 0 0
          }
        }
      }
    }
  }
  JOINT Spine
  {
    OFFSET 0.165834 0.87714 6.61349
    CHANNELS 3 Zrotation Xrotation Yrotation
    JOINT Spine1
    {
      OFFSET 7.38963 1.71661e-005 0
      CHANNELS 3 Zrotation Xrotation Yrotation
      JOINT Spine2
      {
        OFFSET 11.9445 1.14441e-005 0
        CHANNELS 3 Zrotation Xrotation Yrotation
        JOINT Spine3
        {
          OFFSET 14.7254 4.19617e-005 0
          CHANNELS 3 Zrotation Xrotation Yrotation
          JOINT Spine4
          {
            OFFSET 10.9679 0 0
            CHANNELS 3 Zrotation Xrotation Yrotation
            JOINT RightShoulder
            {
              OFFSET 2.46616 -1.6653 3.69651
              CHANNELS 3 Zrotation Xrotation Yrotation
              JOINT RightArm
              {
                OFFSET 13.0012 0 0
                CHANNELS 3 Zrotation Xrotation Yrotation
                JOINT RightForeArm
                {
                  OFFSET 28.7848 1.52588e-005 0
                  CHANNELS 3 Zrotation Xrotation Yrotation
                  JOINT RightHand
                  {
                    OFFSET 26.5688 1.52588e-005 0
                    CHANNELS 3 Zrotation Xrotation Yrotation
                    End Site
                    {
                      OFFSET 0 0 0
                    }
                  }
                }
              }
            }
            JOINT LeftShoulder
            {
              OFFSET 2.38034 -1.29275 -3.7523
              CHANNELS 3 Zrotation Xrotation Yrotation
              JOINT LeftArm
              {
                OFFSET 16.3182 6.10352e-005 0
                CHANNELS 3 Zrotation Xrotation Yrotation
                JOINT LeftForeArm
                {
                  OFFSET 27.0901 0 0
                  CHANNELS 3 Zrotation Xrotation Yrotation
                  JOINT LeftHand
                  {
                    OFFSET 24.5451 1.52588e-005 0
                    CHANNELS 3 Zrotation Xrotation Yrotation
                    End Site
                    {
                      OFFSET 0 0 0
                    }
                  }
                }
              }
            }
            JOINT Neck
            {
              OFFSET 5.0226 -0.0266342 0
              CHANNELS 3 Zrotation Xrotation Yrotation
              JOINT Head
              {
                OFFSET 6.69363 2.86102e-005 0
                CHANNELS 3 Zrotation Xrotation Yrotation
                End Site
                {
                  OFFSET 0 0 0
                }
              }
            }
          }
        }
      }
    }
  }
}
MOTION
Frames:	15
Frame Time:	0.0416667
89.9862 90.1133 111.416 -89.8051 46.3635 -87.5286 -169.653 19.3561 91.5696 -55.4696 18.1009 -2.99284 90.0927 13.021 -1.52374 26.0308 7.10331 -9.33127 -178.941 23.2835 86.5231 -81.7024 -4.7969 -3.89215 76.4879 -8.97189 -4.425 6.66792 -0.969567 5.10001 -0.352483 8.2563 -90.5629 10.3611 -0.959855 -1.03275 -1.30983 -1.00438 -0.989518 -23.8436 -0.605118 -1.27344 -3.83097 -0.605133 -1.27346 92.3295 -30.2276 -102.025 30.4197 -11.8881 11.1349 -49.8737 -3.13846 -87.4253 -33.5432 -0.862444 -11.6143 -88.6052 -53.75 81.5176 -6.62619 4.49738 -10.6015 36.6608 -16.4112 -102.223 -7.16828 0.467543 -16.9786 26.3772 5.23587 -6.1299 -6.78409 7.04058 4.77002 
96.2814 90.909 118.316 -94.2568 48.5632 -85.9771 -170.046 22.4527 89.5256 -53.9816 16.8777 -3.7003 83.7544 10.567 -0.24663 22.5526 6.26289 -7.13392 179.396 5.6762 83.1271 -74.4544 -10.5672 -6.10253 69.3917 -5.55286 -4.30222 11.5297 -1.87959 6.11824 0.483464 8.24757 -90.3267 10.3784 0.813629 -0.719913 -1.29252 0.781167 -0.755044 -23.8286 0.992348 -0.442092 -3.81594 0.992372 -0.442095 91.2037 -28.6347 -104.866 28.8074 -2.08878 2.96951 -53.5126 -9.30894 -94.879 -36.221 -2.05025 -8.59611 -87.1851 -56.8167 84.0101 -14.098 11.2541 9.94218 40.478 -17.8567 -100.606 -11.9254 1.18554 -19.5552 17.7648 2.85791 -3.31464 -2.88517 3.73716 2.39124 
102.746 92.3293 125.102 -96.0737 51.1837 -86.5695 -171.146 24.6409 87.7271 -46.5426 15.3562 -5.03243 74.8805 6.87456 1.33736 20.6053 6.03216 -6.24971 176.793 -6.44898 80.9074 -61.438 -21.1135 -9.89361 63.9304 -2.65941 -1.88548 15.7936 -1.64648 5.36818 1.41016 8.15363 -90.0557 10.5735 2.78305 -0.36105 -1.09455 2.76446 -0.483282 -23.6532 2.7628 0.492732 -3.6406 2.7628 0.492722 91.4507 -24.6817 -105.845 29.6264 2.41881 -4.0237 -45.3867 -5.63969 -94.7174 -36.5848 -1.13275 -9.7581 -85.623 -54.6987 85.9326 -19.8539 18.6633 26.6099 33.1655 -20.7215 -103.983 -11.0902 1.1681 -20.7695 12.6614 0.164544 -2.85729 -1.19022 0.875362 0.959378 
110.426 93.0164 132.497 -93.0547 52.5169 -89.7995 -171.759 29.2251 88.0137 -35.9842 20.4102 -6.40567 64.5744 2.27774 2.44852 20.3621 3.62034 -3.14337 175.261 -11.0923 80.9081 -50.5022 -32.8401 -12.466 62.8594 -2.04303 -2.54205 19.2456 -2.39983 6.4766 2.00881 8.02394 -89.8948 10.8345 4.04825 -0.169618 -0.830114 4.03686 -0.347928 -23.4139 3.91177 1.05683 -3.40129 3.91176 1.05682 93.2286 -19.5733 -103.892 30.2906 5.16582 -10.7971 -44.5061 -3.60455 -96.6132 -35.4072 -0.626947 -11.5564 -86.6514 -50.6715 83.8525 -24.0094 20.6622 36.303 31.3689 -23.0941 -106.578 -9.05339 0.86338 -20.6665 13.4334 -1.86097 -2.70071 -2.463 -1.12345 0.635365 
119.317 91.3685 140.505 -87.1218 52.001 -94.1242 -169.736 39.1151 88.7022 -38.3386 31.1935 -7.22321 65.1853 2.26259 1.02215 19.8302 0.128023 1.34692 176.252 -9.29346 84.5119 -41.7619 -29.5482 -10.9067 70.4211 -5.93857 -3.74916 31.7374 -4.1668 9.81416 1.89542 7.78739 -89.832 11.3043 3.85026 -0.0453187 -0.360898 3.84453 -0.215002 -22.9391 3.68562 1.11554 -2.92648 3.68563 1.11554 93.8225 -17.5218 -103.286 29.22 9.22212 -15.9868 -37.8794 -2.47121 -102.432 -38.5409 -0.713661 -9.35482 -87.9669 -47.4135 81.2995 -27.6397 19.1593 40.4186 32.7586 -25.2997 -109.113 -7.88999 0.731202 -21.3432 18.0824 -1.77428 -2.67014 -5.61516 -0.959501 0.99541 
128.581 87.857 148.592 -88.8896 50.5332 -91.5978 -163.445 47.1677 88.0536 -62.0183 27.8245 -5.13803 73.0564 6.00639 1.98562 19.2136 1.78885 -0.669791 177.592 -5.59883 88.3344 -44.5577 -16.2437 -8.47275 91.1438 -15.3048 -0.749948 40.2567 -2.80855 5.5127 1.38176 8.0429 -90.1009 10.7937 2.70488 -0.450886 -0.874529 2.6824 -0.569571 -23.432 2.71525 0.383508 -3.41939 2.71522 0.383505 94.2295 -18.1237 -102.034 28.8533 9.38568 -19.1086 -36.2825 -1.15552 -106.789 -42.6578 -0.53033 -9.27969 -87.6956 -49.9141 82.1641 -26.2722 21.1894 35.1691 34.739 -26.4532 -109.214 -9.7351 1.11455 -22.8486 21.194 0.118869 -1.80296 -5.30648 0.643283 1.7817 
136.873 85.3895 155.816 -93.6989 47.4896 -83.1308 -163.694 49.0826 93.0387 -84.0367 21.8588 1.38036 77.2117 7.88072 0.877452 20.3417 1.52372 -0.543707 177.453 2.06439 92.6167 -54.0996 -9.24286 -4.15392 102.873 -18.5967 5.56004 28.035 -1.61368 3.91442 0.643858 8.53674 -90.7331 9.80468 0.951297 -1.53019 -1.86687 0.88304 -1.57058 -24.4001 1.36717 -1.17359 -4.38748 1.36716 -1.17361 93.102 -22.5615 -103.013 28.4214 7.59165 -16.2528 -39.6145 4.40296 -106.095 -37.4935 -0.80207 -9.47526 -86.2113 -55.318 85.1764 -19.2523 24.1345 18.7657 36.3495 -23.4238 -103.887 -11.0815 1.14043 -20.4296 24.8301 2.2495 -3.76482 -6.34571 3.36763 3.24822 
142.778 85.3683 161.257 -95.0649 44.4568 -81.0382 -167.15 42.3919 97.4821 -93.5598 22.8769 5.03813 72.1022 6.2614 5.40941 25.5659 5.13671 -6.47301 175.002 8.73854 93.2671 -58.9469 -12.3733 -1.51283 100.785 -18.9468 2.8232 27.7326 -1.83491 4.4228 0.141469 8.65701 -90.9406 9.55413 -0.141947 -1.85317 -2.1181 -0.223358 -1.84515 -24.6431 0.421482 -1.81019 -4.63043 0.421464 -1.81021 91.7657 -25.0105 -105.047 32.0255 4.38235 -3.78758 -37.4348 -1.07878 -100.72 -37.3099 0.0298425 -11.696 -87.4948 -57.5432 83.6956 -11.6429 24.6692 -0.943995 38.3927 -20.2485 -99.1931 -11.8418 1.21532 -19.9534 22.4507 3.49088 -2.82606 -4.25213 4.26007 1.55575 
147.386 86.1894 166.257 -97.2234 44.0212 -80.107 -168.632 28.2967 100.899 -92.3022 22.1977 6.17335 71.8976 6.23665 5.69183 27.6159 2.9182 -3.95989 175.079 12.6289 93.0515 -59.7185 -12.1735 -1.58251 99.1073 -18.6542 1.48561 23.2734 -2.27136 5.97584 -0.089222 8.52483 -90.7364 9.81923 -0.511514 -1.41966 -1.85236 -0.573468 -1.39579 -24.3814 -0.0612433 -1.50774 -4.36879 -0.061243 -1.50774 91.8109 -27.9189 -103.858 37.2578 -3.55683 7.2023 -34.7611 -0.115208 -88.341 -34.2756 0.890917 -14.7357 -87.6099 -54.9225 83.1291 -7.60438 23.5271 -17.0898 36.3253 -18.4583 -97.7765 -8.89916 0.760128 -19.2857 17.032 3.68457 -6.03746 -3.60444 5.22791 3.64674 
151.69 87.1113 171.446 -97.193 48.2727 -81.4359 -167.793 14.378 100.962 -83.2312 24.1854 5.2974 70.1119 5.36362 5.15445 28.9712 2.76505 -4.102 178.815 19.4597 92.8028 -61.0369 -14.494 -3.48584 93.2633 -16.8712 -1.71547 23.116 -2.08967 5.54389 0.0217536 8.22602 -90.4201 10.4212 -0.149242 -0.823325 -1.25002 -0.185321 -0.815959 -23.7831 0.10512 -0.830106 -3.77049 0.105091 -0.830113 91.8405 -27.2724 -104.033 44.6593 -9.34797 15.5119 -29.2215 -9.55002 -77.2891 -37.3578 1.43243 -14.8801 -87.3708 -52.0732 83.0166 -5.61655 18.0809 -27.8436 33.7923 -17.3475 -98.835 -6.51638 0.430705 -18.5733 14.5164 4.60476 -7.3699 -4.00085 6.34099 4.51747 
154.824 88.362 176.197 -99.1738 48.0425 -78.0306 -168.772 0.917612 103.24 -69.8213 28.5471 6.4006 68.6286 4.61774 4.42432 29.0041 2.5111 -3.73441 179.152 21.2177 94.2065 -57.9903 -16.4224 -3.15606 87.2654 -14.3329 -3.37255 21.8426 -1.87461 5.22202 -0.245158 8.28352 -90.5546 10.3023 -0.741988 -1.03742 -1.36877 -0.786936 -1.00377 -23.9012 -0.395934 -1.21244 -3.88857 -0.395931 -1.21244 91.3398 -26.4837 -105.372 48.623 -9.85316 20.0561 -23.6911 -12.9197 -68.3368 -37.7903 1.88223 -15.7812 -87.3965 -49.1052 82.4759 -7.12973 9.7886 -33.0466 30.6915 -15.7589 -101.302 -3.85089 0.0806431 -17.5774 14.931 5.52635 -7.59986 -5.05418 7.28708 4.22716 
158.468 88.7467 181.953 -98.1188 48.4873 -80.2897 -169.72 -8.54933 100.379 -51.0961 23.7828 4.1901 72.1606 6.25232 3.80748 50.584 1.80236 -9.70166 179.67 26.8158 91.9276 -57.3101 -18.3566 -3.65833 80.9481 -11.0988 -3.42879 22.9374 -1.74076 4.83413 -0.400637 8.1911 -90.3563 10.4886 -0.961455 -0.622227 -1.18211 -0.987934 -0.579309 -23.7179 -0.730009 -0.88242 -3.70523 -0.730029 -0.882427 90.6675 -26.7312 -106.684 48.6596 -6.24415 21.7806 -21.7682 -18.6807 -59.2279 -36.4851 0.973459 -13.7362 -87.2377 -47.1057 82.3671 -9.02593 2.87721 -38.3555 30.9232 -14.3686 -101.855 -2.77714 -0.0471042 -16.763 16.5189 5.82353 -8.04374 -5.76134 7.7507 4.73776 
162.83 88.7929 188.036 -98.155 47.6371 -80.0683 -168.987 -11.1591 100.825 -41.7951 15.8309 1.90755 87.809 12.2627 -0.249083 52.309 0.982772 -9.16861 179.249 30.9591 91.2502 -54.568 -19.6563 -3.20371 74.5479 -7.95734 -3.27288 21.8287 -1.54429 4.55397 -0.40752 8.30215 -90.4701 10.2654 -1.02671 -0.84647 -1.4054 -1.06295 -0.800474 -23.9402 -0.724846 -1.11588 -3.92757 -0.724861 -1.11589 91.4272 -27.3214 -104.876 47.5918 -4.73705 20.3911 -15.7398 -19.8137 -50.7815 -38.1049 0.741101 -11.9949 -88.2263 -47.9311 80.9942 -10.9946 -0.805448 -43.2893 33.7695 -13.2606 -100.452 -2.93236 -0.0311183 -16.5831 18.3443 5.5626 -6.94703 -5.49613 7.31824 4.09876 
167.302 88.9717 193.996 -99.2219 47.0122 -79.5963 -168.056 -5.70436 101.734 -45.5097 13.6837 0.261779 96.8102 14.0532 -6.52157 38.3679 2.10042 -5.58281 177.962 32.9906 90.3378 -49.8614 -21.9332 -2.559 69.5513 -5.42053 -2.63572 18.0467 -1.87092 5.5695 -0.403198 8.46224 -90.4482 9.94492 -1.00719 -0.807691 -1.72586 -1.04176 -0.762596 -24.2608 -0.717877 -1.07305 -4.24816 -0.717895 -1.07305 89.7455 -29.6168 -107.393 44.4264 -2.56371 17.296 -9.61177 -20.2012 -39.1731 -35.9757 0.4965 -10.8975 -89.0853 -49.1341 79.9226 -13.5601 -1.39108 -43.5504 38.4476 -12.334 -98.1601 -3.62577 0.0310925 -15.8179 18.5254 5.07709 -6.92378 -4.55101 6.8875 3.76429 
170.131 90.0564 198.617 -103.67 48.0213 -78.5728 -169.073 -5.76157 98.2306 -45.7224 11.9554 -1.08059 95.8916 13.3767 -7.55825 34.6487 2.41381 -5.09639 176.308 30.5512 87.9754 -47.1642 -29.9788 -2.47201 67.2036 -4.14786 -3.98245 17.1552 -2.11024 6.0891 -0.243499 8.69038 -90.2055 9.49211 -0.578007 -0.36368 -2.17875 -0.593471 -0.337913 -24.7142 -0.442005 -0.520585 -4.70151 -0.441987 -0.520596 89.5112 -29.5851 -107.892 43.3663 -4.33184 11.5626 -0.611408 -21.6899 -24.2263 -32.4582 0.463747 -11.2603 -89.8257 -51.5858 79.3193 -14.3631 -0.537423 -38.721 41.3889 -10.1583 -94.1713 -0.358864 -0.256717 -13.8056 15.6528 4.72165 -6.47924 -2.72061 6.32512 3.32471 
